<?xml version="1.0" standalone="no"?>
<!DOCTYPE svg PUBLIC "-//W3C//DTD SVG 20010904//EN"
 "http://www.w3.org/TR/2001/REC-SVG-20010904/DTD/svg10.dtd">
<svg version="1.0" xmlns="http://www.w3.org/2000/svg"
 width="700.000000pt" height="700.000000pt" viewBox="0 0 700.000000 700.000000"
 preserveAspectRatio="xMidYMid meet">
<metadata>
Created by potrace 1.11, written by Peter Selinger 2001-2013
</metadata>
<g transform="translate(0.000000,700.000000) scale(0.100000,-0.100000)"
fill="#000000" stroke="none">
<path d="M1595 6990 c-98 -20 -165 -65 -165 -112 0 -37 41 -93 96 -133 30 -22
127 -77 215 -122 635 -325 1025 -593 1218 -838 48 -60 111 -164 111 -182 0 -6
-26 -5 -67 3 -38 7 -97 16 -133 19 -36 4 -76 8 -90 11 -59 10 -258 18 -425 18
-294 0 -547 -26 -770 -79 -38 -9 -80 -18 -91 -21 -82 -16 -331 -99 -424 -141
-306 -138 -534 -292 -723 -488 -61 -63 -107 -146 -107 -190 0 -39 29 -82 64
-97 50 -21 208 -15 296 11 41 12 82 24 90 26 89 24 154 41 325 85 110 28 209
53 220 56 11 2 74 15 140 29 165 36 357 72 500 95 105 16 158 24 265 35 14 2
48 6 75 9 28 3 73 9 100 12 90 9 529 12 585 3 30 -4 75 -10 100 -13 100 -10
239 -47 312 -81 l36 -18 -37 -30 c-39 -33 -256 -251 -306 -308 -67 -75 -235
-289 -302 -384 -213 -301 -414 -671 -544 -1000 -22 -55 -44 -109 -49 -120 -13
-29 -97 -283 -111 -335 -7 -25 -14 -49 -15 -55 -12 -37 -95 -376 -99 -405 -3
-19 -12 -71 -20 -115 -18 -99 -22 -124 -31 -200 -3 -33 -8 -67 -9 -75 -3 -15
-13 -108 -20 -180 -28 -286 -23 -778 10 -1074 35 -315 272 -591 516 -602 109
-5 202 36 277 122 41 47 102 161 117 219 5 17 9 35 11 40 16 55 26 159 29 305
4 182 14 429 20 490 2 19 6 73 10 120 3 47 10 119 15 160 5 41 12 102 15 135
3 33 11 92 16 130 5 39 12 84 14 100 14 100 41 256 76 440 23 116 43 221 45
234 12 60 117 478 147 586 92 322 177 586 277 855 18 47 39 105 47 130 9 25
20 49 24 55 5 5 9 15 9 23 0 8 6 28 14 45 13 28 90 213 164 394 20 50 28 61
39 52 15 -13 131 -182 193 -284 216 -351 379 -695 480 -1012 48 -149 51 -159
89 -319 45 -188 102 -282 162 -267 18 5 79 70 79 84 0 4 7 23 15 43 8 20 15
37 15 38 0 2 7 26 16 53 19 60 43 165 50 220 3 22 8 51 11 65 3 14 7 104 8
200 3 152 -1 231 -19 340 -7 45 -46 205 -55 225 -4 11 -16 45 -26 75 -10 30
-42 106 -71 168 -29 62 -50 111 -46 109 305 -167 877 -547 1162 -773 61 -49
260 -212 289 -238 19 -17 58 -51 86 -76 27 -24 129 -122 225 -216 208 -205
196 -194 240 -221 151 -90 197 19 121 287 -219 773 -735 1394 -1455 1750 -286
141 -513 221 -846 298 l-125 29 60 28 c129 58 476 165 615 189 14 2 63 11 110
19 84 16 122 21 230 32 30 4 73 8 95 10 22 3 126 5 230 5 105 0 217 5 251 11
111 19 175 73 160 135 -13 50 -98 122 -210 175 -87 41 -248 102 -308 115 -10
2 -26 6 -35 8 -82 20 -121 27 -166 32 -29 3 -59 7 -67 9 -33 9 -192 18 -315
19 -124 0 -353 -12 -365 -19 -3 -1 -33 -6 -67 -10 -35 -4 -73 -8 -85 -10 -40
-5 -151 -25 -223 -41 -38 -8 -79 -16 -91 -18 -21 -4 -246 -62 -275 -72 -13 -3
-28 16 -62 78 -318 581 -900 966 -1611 1064 -122 17 -508 26 -571 14z"/>
</g>
</svg>
