<?xml version="1.0" encoding="iso-8859-1"?>
<!-- Generator: Adobe Illustrator 18.1.1, SVG Export Plug-In . SVG Version: 6.00 Build 0)  -->
<svg version="1.1" id="Capa_1" xmlns="http://www.w3.org/2000/svg" xmlns:xlink="http://www.w3.org/1999/xlink" x="0px" y="0px"
	 viewBox="0 0 294.104 294.104" style="enable-background:new 0 0 294.104 294.104;" xml:space="preserve">
<g>
	<path style="fill:#FFFFFF;" d="M15.532,86.092c-10.438,10.1-4.993,16.839,8.964,12.847c33.113-9.469,90.229-22.697,116.227-10.264
		c0,0-76.033,60.254-64.573,179.413c1.387,14.457,12.227,26.015,22.665,26.015c10.443,0,17.383-11.71,17.351-26.238
		c-0.065-32.836,5.493-94.025,38.802-169.329c0,0,24.775,32.558,32.221,68.086c2.981,14.212,8.523,16.203,12.385,2.197
		c4.226-15.382,5.564-36.578-6.804-58.791c0,0,47.304,25.645,78.116,58.698c9.905,10.622,15.795,8.833,11.933-5.167
		c-8.121-29.393-32.069-75.016-102.657-88.591c0,0,27.179-13.244,60.14-11.933c14.511,0.571,19.282-6.233,6.358-12.863
		c-15.724-8.077-42.582-13.489-86.22-0.941c0,0-21.027-51.269-88.961-49.169c-14.511,0.451-15.142,7.571-2.094,13.929
		c22.534,10.981,53.673,28.68,59.83,45.101C129.224,59.093,59.207,43.82,15.532,86.092z"/>
</g>
<g>
</g>
<g>
</g>
<g>
</g>
<g>
</g>
<g>
</g>
<g>
</g>
<g>
</g>
<g>
</g>
<g>
</g>
<g>
</g>
<g>
</g>
<g>
</g>
<g>
</g>
<g>
</g>
<g>
</g>
</svg>
